%TF.GenerationSoftware,KiCad,Pcbnew,6.0.1-1.fc35*%
%TF.CreationDate,2022-01-21T00:59:50-05:00*%
%TF.ProjectId,a_dux_30,615f6475-785f-4333-902e-6b696361645f,v1.0.0*%
%TF.SameCoordinates,Original*%
%TF.FileFunction,Legend,Top*%
%TF.FilePolarity,Positive*%
%FSLAX46Y46*%
G04 Gerber Fmt 4.6, Leading zero omitted, Abs format (unit mm)*
G04 Created by KiCad (PCBNEW 6.0.1-1.fc35) date 2022-01-21 00:59:50*
%MOMM*%
%LPD*%
G01*
G04 APERTURE LIST*
G04 Aperture macros list*
%AMRotRect*
0 Rectangle, with rotation*
0 The origin of the aperture is its center*
0 $1 length*
0 $2 width*
0 $3 Rotation angle, in degrees counterclockwise*
0 Add horizontal line*
21,1,$1,$2,0,0,$3*%
G04 Aperture macros list end*
%ADD10C,0.150000*%
%ADD11RotRect,1.752600X1.752600X265.000000*%
%ADD12C,1.752600*%
G04 APERTURE END LIST*
D10*
%TO.C,MCU1*%
X114394568Y43357450D02*
X114324843Y42560494D01*
X114021241Y42587056D01*
X113948660Y42631646D01*
X113914030Y42672917D01*
X113882721Y42752137D01*
X113892681Y42865988D01*
X113937272Y42938569D01*
X113978542Y42973199D01*
X114057763Y43004509D01*
X114361365Y42977947D01*
X113376086Y42643499D02*
X113300186Y42650140D01*
X113227605Y42694730D01*
X113192975Y42736001D01*
X113161665Y42815222D01*
X113136996Y42970343D01*
X113153597Y43160094D01*
X113204828Y43308575D01*
X113249419Y43381156D01*
X113290689Y43415786D01*
X113369910Y43447095D01*
X113445811Y43440455D01*
X113518391Y43395864D01*
X113553021Y43354594D01*
X113584331Y43275373D01*
X113609000Y43120252D01*
X113592399Y42930500D01*
X113541168Y42782019D01*
X113496577Y42709439D01*
X113455307Y42674809D01*
X113376086Y42643499D01*
X112617081Y42709904D02*
X112541180Y42716544D01*
X112468600Y42761135D01*
X112433970Y42802405D01*
X112402660Y42881626D01*
X112377990Y43036747D01*
X112394592Y43226499D01*
X112445823Y43374980D01*
X112490413Y43447560D01*
X112531684Y43482190D01*
X112610905Y43513500D01*
X112686805Y43506859D01*
X112759386Y43462269D01*
X112794016Y43420998D01*
X112825325Y43341777D01*
X112849995Y43186656D01*
X112833394Y42996905D01*
X112782163Y42848424D01*
X112737572Y42775844D01*
X112696301Y42741213D01*
X112617081Y42709904D01*
X112844939Y25645108D02*
X112775214Y24848152D01*
X112471612Y24874714D01*
X112399031Y24919304D01*
X112364401Y24960575D01*
X112333092Y25039795D01*
X112343052Y25153646D01*
X112387643Y25226227D01*
X112428913Y25260857D01*
X112508134Y25292167D01*
X112811736Y25265605D01*
X111826457Y24931157D02*
X111750557Y24937798D01*
X111677976Y24982388D01*
X111643346Y25023659D01*
X111612036Y25102880D01*
X111587367Y25258001D01*
X111603968Y25447752D01*
X111655199Y25596233D01*
X111699790Y25668814D01*
X111741060Y25703444D01*
X111820281Y25734753D01*
X111896182Y25728113D01*
X111968762Y25683522D01*
X112003392Y25642252D01*
X112034702Y25563031D01*
X112059371Y25407910D01*
X112042770Y25218158D01*
X111991539Y25069677D01*
X111946948Y24997097D01*
X111905678Y24962467D01*
X111826457Y24931157D01*
X110877700Y25014163D02*
X111029501Y25000882D01*
X111108722Y25032192D01*
X111149993Y25066822D01*
X111235854Y25174032D01*
X111287085Y25322513D01*
X111313647Y25626115D01*
X111282337Y25705336D01*
X111247707Y25746606D01*
X111175127Y25791197D01*
X111023325Y25804478D01*
X110944105Y25773168D01*
X110902834Y25738538D01*
X110858243Y25665958D01*
X110841642Y25476206D01*
X110872952Y25396986D01*
X110907582Y25355715D01*
X110980163Y25311124D01*
X111131964Y25297844D01*
X111211184Y25329153D01*
X111252455Y25363783D01*
X111297046Y25436364D01*
X113746260Y40099651D02*
X113818840Y40055060D01*
X113932691Y40045100D01*
X114049862Y40073089D01*
X114132403Y40142349D01*
X114176993Y40214930D01*
X114228225Y40363411D01*
X114238185Y40477262D01*
X114213516Y40632383D01*
X114182206Y40711604D01*
X114112946Y40794145D01*
X114002415Y40842056D01*
X113926515Y40848696D01*
X113809344Y40820706D01*
X113768073Y40786076D01*
X113744832Y40520424D01*
X113896633Y40507143D01*
X113433161Y40891859D02*
X113363437Y40094903D01*
X112977758Y40931701D01*
X112908033Y40134746D01*
X112598255Y40964904D02*
X112528531Y40167948D01*
X112338779Y40184549D01*
X112228249Y40232460D01*
X112158989Y40315001D01*
X112127679Y40394222D01*
X112103009Y40549343D01*
X112112970Y40663194D01*
X112164201Y40811675D01*
X112208792Y40884255D01*
X112291333Y40953515D01*
X112408504Y40981505D01*
X112598255Y40964904D01*
X103945596Y34072807D02*
X103875871Y33275851D01*
X103572269Y33302413D01*
X103499688Y33347003D01*
X103465058Y33388274D01*
X103433749Y33467494D01*
X103443709Y33581345D01*
X103488300Y33653926D01*
X103529570Y33688556D01*
X103608791Y33719866D01*
X103912393Y33693304D01*
X103123506Y33418156D02*
X103082235Y33383526D01*
X103003015Y33352216D01*
X102813263Y33368817D01*
X102740683Y33413408D01*
X102706053Y33454678D01*
X102674743Y33533899D01*
X102681384Y33609799D01*
X102729294Y33720330D01*
X103224540Y34135891D01*
X102731187Y34179054D01*
X102168109Y33425261D02*
X102092208Y33431901D01*
X102019628Y33476492D01*
X101984998Y33517762D01*
X101953688Y33596983D01*
X101929018Y33752104D01*
X101945620Y33941856D01*
X101996851Y34090337D01*
X102041441Y34162917D01*
X102082712Y34197547D01*
X102161933Y34228857D01*
X102237833Y34222216D01*
X102310414Y34177626D01*
X102345044Y34136355D01*
X102376353Y34057134D01*
X102401023Y33902013D01*
X102384422Y33712262D01*
X102333191Y33563781D01*
X102288600Y33491201D01*
X102247329Y33456570D01*
X102168109Y33425261D01*
X113066314Y28175443D02*
X112996589Y27378487D01*
X112692987Y27405049D01*
X112620406Y27449639D01*
X112585776Y27490910D01*
X112554467Y27570130D01*
X112564427Y27683981D01*
X112609018Y27756562D01*
X112650288Y27791192D01*
X112729509Y27822502D01*
X113033111Y27795940D01*
X112047832Y27461492D02*
X111971932Y27468133D01*
X111899351Y27512723D01*
X111864721Y27553994D01*
X111833411Y27633215D01*
X111808742Y27788336D01*
X111825343Y27978087D01*
X111876574Y28126568D01*
X111921165Y28199149D01*
X111962435Y28233779D01*
X112041656Y28265088D01*
X112117557Y28258448D01*
X112190137Y28213857D01*
X112224767Y28172587D01*
X112256077Y28093366D01*
X112280746Y27938245D01*
X112264145Y27748493D01*
X112212914Y27600012D01*
X112168323Y27527432D01*
X112127053Y27492802D01*
X112047832Y27461492D01*
X111061125Y27547818D02*
X111440628Y27514616D01*
X111511780Y27890798D01*
X111470510Y27856168D01*
X111391289Y27824858D01*
X111201538Y27841459D01*
X111128957Y27886050D01*
X111094327Y27927321D01*
X111063017Y28006541D01*
X111079618Y28196293D01*
X111124209Y28268873D01*
X111165480Y28303503D01*
X111244700Y28334813D01*
X111434452Y28318212D01*
X111507032Y28273621D01*
X111541662Y28232351D01*
X104413498Y38328219D02*
X104217570Y39148417D01*
X103882194Y38374702D01*
X103224223Y39158842D02*
X103265493Y39193472D01*
X103382664Y39221461D01*
X103458565Y39214821D01*
X103569095Y39166910D01*
X103638356Y39084369D01*
X103669665Y39005148D01*
X103694335Y38850027D01*
X103684374Y38736176D01*
X103633143Y38587695D01*
X103588552Y38515115D01*
X103506011Y38445855D01*
X103388840Y38417865D01*
X103312940Y38424506D01*
X103202409Y38472416D01*
X103167779Y38513687D01*
X102427267Y39228566D02*
X102468538Y39263196D01*
X102585709Y39291186D01*
X102661609Y39284545D01*
X102772140Y39236635D01*
X102841400Y39154094D01*
X102872710Y39074873D01*
X102897379Y38919751D01*
X102887418Y38805901D01*
X102836187Y38657420D01*
X102791597Y38584839D01*
X102709056Y38515579D01*
X102591884Y38487590D01*
X102515984Y38494230D01*
X102405453Y38542141D01*
X102370823Y38583412D01*
X112402187Y20584439D02*
X112332462Y19787483D01*
X112028860Y19814045D01*
X111956279Y19858635D01*
X111921649Y19899906D01*
X111890340Y19979126D01*
X111900300Y20092977D01*
X111944891Y20165558D01*
X111986161Y20200188D01*
X112065382Y20231498D01*
X112368984Y20204936D01*
X111383705Y19870488D02*
X111307805Y19877129D01*
X111235224Y19921719D01*
X111200594Y19962990D01*
X111169284Y20042211D01*
X111144615Y20197332D01*
X111161216Y20387083D01*
X111212447Y20535564D01*
X111257038Y20608145D01*
X111298308Y20642775D01*
X111377529Y20674084D01*
X111453430Y20667444D01*
X111526010Y20622853D01*
X111560640Y20581583D01*
X111591950Y20502362D01*
X111616619Y20347241D01*
X111600018Y20157489D01*
X111548787Y20009008D01*
X111504196Y19936428D01*
X111462926Y19901798D01*
X111383705Y19870488D01*
X110692532Y20275125D02*
X110765112Y20230534D01*
X110799742Y20189264D01*
X110831052Y20110043D01*
X110827732Y20072093D01*
X110783141Y19999512D01*
X110741871Y19964882D01*
X110662650Y19933572D01*
X110510849Y19946853D01*
X110438268Y19991444D01*
X110403638Y20032714D01*
X110372329Y20111935D01*
X110375649Y20149886D01*
X110420240Y20222466D01*
X110461510Y20257096D01*
X110540731Y20288406D01*
X110692532Y20275125D01*
X110771753Y20306435D01*
X110813023Y20341065D01*
X110857614Y20413645D01*
X110870895Y20565446D01*
X110839585Y20644667D01*
X110804955Y20685937D01*
X110732375Y20730528D01*
X110580573Y20743809D01*
X110501353Y20712499D01*
X110460082Y20677869D01*
X110415491Y20605289D01*
X110402211Y20453488D01*
X110433520Y20374267D01*
X110468150Y20332996D01*
X110540731Y20288406D01*
X112180812Y18054105D02*
X112111087Y17257149D01*
X111807485Y17283711D01*
X111734904Y17328301D01*
X111700274Y17369572D01*
X111668965Y17448792D01*
X111678925Y17562643D01*
X111723516Y17635224D01*
X111764786Y17669854D01*
X111844007Y17701164D01*
X112147609Y17674602D01*
X111162330Y17340154D02*
X111086430Y17346795D01*
X111013849Y17391385D01*
X110979219Y17432656D01*
X110947909Y17511877D01*
X110923240Y17666998D01*
X110939841Y17856749D01*
X110991072Y18005230D01*
X111035663Y18077811D01*
X111076933Y18112441D01*
X111156154Y18143750D01*
X111232055Y18137110D01*
X111304635Y18092519D01*
X111339265Y18051249D01*
X111370575Y17972028D01*
X111395244Y17816907D01*
X111378643Y17627155D01*
X111327412Y17478674D01*
X111282821Y17406094D01*
X111241551Y17371464D01*
X111162330Y17340154D01*
X110586900Y18193554D02*
X110435099Y18206835D01*
X110355878Y18175525D01*
X110314608Y18140895D01*
X110228746Y18033684D01*
X110177515Y17885203D01*
X110150954Y17581601D01*
X110182263Y17502380D01*
X110216893Y17461110D01*
X110289474Y17416519D01*
X110441275Y17403238D01*
X110520496Y17434548D01*
X110561766Y17469178D01*
X110606357Y17541759D01*
X110622958Y17731510D01*
X110591648Y17810731D01*
X110557018Y17852001D01*
X110484438Y17896592D01*
X110332637Y17909873D01*
X110253416Y17878563D01*
X110212145Y17843933D01*
X110167555Y17771353D01*
X103502845Y29012138D02*
X103433120Y28215182D01*
X103129518Y28241744D01*
X103056937Y28286334D01*
X103022307Y28327605D01*
X102990998Y28406825D01*
X103000958Y28520676D01*
X103045549Y28593257D01*
X103086819Y28627887D01*
X103166040Y28659197D01*
X103469642Y28632635D01*
X102288436Y29118385D02*
X102743839Y29078542D01*
X102516137Y29098463D02*
X102446413Y28301507D01*
X102532274Y28408718D01*
X102614815Y28477978D01*
X102694036Y28509288D01*
X101793190Y28702824D02*
X101865770Y28658233D01*
X101900400Y28616963D01*
X101931710Y28537742D01*
X101928390Y28499792D01*
X101883799Y28427211D01*
X101842529Y28392581D01*
X101763308Y28361271D01*
X101611507Y28374552D01*
X101538926Y28419143D01*
X101504296Y28460413D01*
X101472987Y28539634D01*
X101476307Y28577585D01*
X101520898Y28650165D01*
X101562168Y28684795D01*
X101641389Y28716105D01*
X101793190Y28702824D01*
X101872411Y28734134D01*
X101913681Y28768764D01*
X101958272Y28841344D01*
X101971553Y28993145D01*
X101940243Y29072366D01*
X101905613Y29113636D01*
X101833033Y29158227D01*
X101681231Y29171508D01*
X101602011Y29140198D01*
X101560740Y29105568D01*
X101516149Y29032988D01*
X101502869Y28881187D01*
X101534178Y28801966D01*
X101568808Y28760695D01*
X101641389Y28716105D01*
X103724221Y31542472D02*
X103654496Y30745516D01*
X103350894Y30772078D01*
X103278313Y30816668D01*
X103243683Y30857939D01*
X103212374Y30937159D01*
X103222334Y31051010D01*
X103266925Y31123591D01*
X103308195Y31158221D01*
X103387416Y31189531D01*
X103691018Y31162969D01*
X102509812Y31648719D02*
X102965215Y31608876D01*
X102737513Y31628797D02*
X102667789Y30831841D01*
X102753650Y30939052D01*
X102836191Y31008312D01*
X102915412Y31039622D01*
X102130309Y31681921D02*
X101978508Y31695202D01*
X101899287Y31663892D01*
X101858017Y31629262D01*
X101772155Y31522051D01*
X101720924Y31373570D01*
X101694363Y31069968D01*
X101725672Y30990747D01*
X101760302Y30949477D01*
X101832883Y30904886D01*
X101984684Y30891605D01*
X102063905Y30922915D01*
X102105175Y30957545D01*
X102149766Y31030126D01*
X102166367Y31219877D01*
X102135057Y31299098D01*
X102100427Y31340368D01*
X102027847Y31384959D01*
X101876046Y31398240D01*
X101796825Y31366930D01*
X101755554Y31332300D01*
X101710964Y31259720D01*
X102617343Y18890800D02*
X102547618Y18093844D01*
X102244016Y18120406D01*
X102171435Y18164996D01*
X102136805Y18206267D01*
X102105496Y18285487D01*
X102115456Y18399338D01*
X102160047Y18471919D01*
X102201317Y18506549D01*
X102280538Y18537859D01*
X102584140Y18511297D01*
X101402934Y18997047D02*
X101858337Y18957204D01*
X101630635Y18977125D02*
X101560911Y18180169D01*
X101646772Y18287380D01*
X101729313Y18356640D01*
X101808534Y18387950D01*
X100839856Y18243254D02*
X100763955Y18249894D01*
X100691375Y18294485D01*
X100656745Y18335755D01*
X100625435Y18414976D01*
X100600765Y18570097D01*
X100617367Y18759849D01*
X100668598Y18908330D01*
X100713188Y18980910D01*
X100754459Y19015540D01*
X100833680Y19046850D01*
X100909580Y19040209D01*
X100982161Y18995619D01*
X101016791Y18954348D01*
X101048100Y18875127D01*
X101072770Y18720006D01*
X101056169Y18530255D01*
X101004938Y18381774D01*
X100960347Y18309194D01*
X100919076Y18274563D01*
X100839856Y18243254D01*
X102838718Y21421134D02*
X102768993Y20624178D01*
X102465391Y20650740D01*
X102392810Y20695330D01*
X102358180Y20736601D01*
X102326871Y20815821D01*
X102336831Y20929672D01*
X102381422Y21002253D01*
X102422692Y21036883D01*
X102501913Y21068193D01*
X102805515Y21041631D01*
X101624309Y21527381D02*
X102079712Y21487538D01*
X101852010Y21507459D02*
X101782286Y20710503D01*
X101868147Y20817714D01*
X101950688Y20886974D01*
X102029909Y20918284D01*
X100871479Y20790189D02*
X101023280Y20776908D01*
X101102501Y20808218D01*
X101143772Y20842848D01*
X101229633Y20950058D01*
X101280864Y21098539D01*
X101307426Y21402141D01*
X101276116Y21481362D01*
X101241486Y21522632D01*
X101168906Y21567223D01*
X101017104Y21580504D01*
X100937884Y21549194D01*
X100896613Y21514564D01*
X100852022Y21441984D01*
X100835421Y21252232D01*
X100866731Y21173012D01*
X100901361Y21131741D01*
X100973942Y21087150D01*
X101125743Y21073870D01*
X101204963Y21105179D01*
X101246234Y21139809D01*
X101290825Y21212390D01*
X113730441Y35766446D02*
X113660716Y34969490D01*
X113357114Y34996052D01*
X113284533Y35040642D01*
X113249903Y35081913D01*
X113218594Y35161133D01*
X113228554Y35274984D01*
X113273145Y35347565D01*
X113314415Y35382195D01*
X113393636Y35413505D01*
X113697238Y35386943D01*
X112711959Y35052495D02*
X112636059Y35059136D01*
X112563478Y35103726D01*
X112528848Y35144997D01*
X112497538Y35224218D01*
X112472869Y35379339D01*
X112489470Y35569090D01*
X112540701Y35717571D01*
X112585292Y35790152D01*
X112626562Y35824782D01*
X112705783Y35856091D01*
X112781684Y35849451D01*
X112854264Y35804860D01*
X112888894Y35763590D01*
X112920204Y35684369D01*
X112944873Y35529248D01*
X112928272Y35339496D01*
X112877041Y35191015D01*
X112832450Y35118435D01*
X112791180Y35083805D01*
X112711959Y35052495D01*
X112149345Y35178199D02*
X112108075Y35143569D01*
X112028854Y35112259D01*
X111839103Y35128860D01*
X111766522Y35173451D01*
X111731892Y35214721D01*
X111700583Y35293942D01*
X111707223Y35369843D01*
X111755134Y35480373D01*
X112250380Y35895934D01*
X111757026Y35939097D01*
X113524885Y37569317D02*
X113597465Y37524726D01*
X113711316Y37514766D01*
X113828487Y37542755D01*
X113911028Y37612015D01*
X113955618Y37684596D01*
X114006850Y37833077D01*
X114016810Y37946928D01*
X113992141Y38102049D01*
X113960831Y38181270D01*
X113891571Y38263811D01*
X113781040Y38311722D01*
X113705140Y38318362D01*
X113587969Y38290372D01*
X113546698Y38255742D01*
X113523457Y37990090D01*
X113675258Y37976809D01*
X113211786Y38361525D02*
X113142062Y37564569D01*
X112756383Y38401367D01*
X112686658Y37604412D01*
X112376880Y38434570D02*
X112307156Y37637614D01*
X112117404Y37654215D01*
X112006874Y37702126D01*
X111937614Y37784667D01*
X111906304Y37863888D01*
X111881634Y38019009D01*
X111891595Y38132860D01*
X111942826Y38281341D01*
X111987417Y38353921D01*
X112069958Y38423181D01*
X112187129Y38451171D01*
X112376880Y38434570D01*
X103060094Y23951469D02*
X102990369Y23154513D01*
X102686767Y23181075D01*
X102614186Y23225665D01*
X102579556Y23266936D01*
X102548247Y23346156D01*
X102558207Y23460007D01*
X102602798Y23532588D01*
X102644068Y23567218D01*
X102723289Y23598528D01*
X103026891Y23571966D01*
X101845685Y24057716D02*
X102301088Y24017873D01*
X102073386Y24037794D02*
X102003662Y23240838D01*
X102089523Y23348049D01*
X102172064Y23417309D01*
X102251285Y23448619D01*
X101116097Y23586176D02*
X101162580Y24117479D01*
X101279286Y23265972D02*
X101518841Y23818625D01*
X101025488Y23861788D01*
X112623563Y23114774D02*
X112553838Y22317818D01*
X112250236Y22344380D01*
X112177655Y22388970D01*
X112143025Y22430241D01*
X112111716Y22509461D01*
X112121676Y22623312D01*
X112166267Y22695893D01*
X112207537Y22730523D01*
X112286758Y22761833D01*
X112590360Y22735271D01*
X111605081Y22400823D02*
X111529181Y22407464D01*
X111456600Y22452054D01*
X111421970Y22493325D01*
X111390660Y22572546D01*
X111365991Y22727667D01*
X111382592Y22917418D01*
X111433823Y23065899D01*
X111478414Y23138480D01*
X111519684Y23173110D01*
X111598905Y23204419D01*
X111674806Y23197779D01*
X111747386Y23153188D01*
X111782016Y23111918D01*
X111813326Y23032697D01*
X111837995Y22877576D01*
X111821394Y22687824D01*
X111770163Y22539343D01*
X111725572Y22466763D01*
X111684302Y22432133D01*
X111605081Y22400823D01*
X111073777Y22447306D02*
X110542473Y22493789D01*
X110953751Y23260863D01*
X103281469Y26481803D02*
X103211744Y25684847D01*
X102908142Y25711409D01*
X102835561Y25755999D01*
X102800931Y25797270D01*
X102769622Y25876490D01*
X102779582Y25990341D01*
X102824173Y26062922D01*
X102865443Y26097552D01*
X102944664Y26128862D01*
X103248266Y26102300D01*
X102067060Y26588050D02*
X102522463Y26548207D01*
X102294761Y26568128D02*
X102225037Y25771172D01*
X102310898Y25878383D01*
X102393439Y25947643D01*
X102472660Y25978953D01*
X101276280Y25854178D02*
X101655783Y25820976D01*
X101726935Y26197158D01*
X101685665Y26162528D01*
X101606444Y26131218D01*
X101416693Y26147819D01*
X101344112Y26192410D01*
X101309482Y26233681D01*
X101278172Y26312901D01*
X101294773Y26502653D01*
X101339364Y26575233D01*
X101380635Y26609863D01*
X101459855Y26641173D01*
X101649607Y26624572D01*
X101722187Y26579981D01*
X101756817Y26538711D01*
X104635021Y46761001D02*
X104867470Y46358257D01*
X105090424Y46721158D02*
X105020699Y45924203D01*
X104717097Y45950764D01*
X104644517Y45995355D01*
X104609887Y46036626D01*
X104578577Y46115846D01*
X104588537Y46229697D01*
X104633128Y46302277D01*
X104674399Y46336907D01*
X104753619Y46368217D01*
X105057222Y46341656D01*
X104311497Y46559861D02*
X103931994Y46593063D01*
X104407319Y46780922D02*
X104071942Y46007208D01*
X103876015Y46827405D01*
X103616539Y46047051D02*
X103496512Y46860607D01*
X103294908Y46304634D01*
X103192910Y46887169D01*
X102933434Y46106815D01*
X113509065Y33236112D02*
X113439340Y32439156D01*
X113135738Y32465718D01*
X113063157Y32510308D01*
X113028527Y32551579D01*
X112997218Y32630799D01*
X113007178Y32744650D01*
X113051769Y32817231D01*
X113093039Y32851861D01*
X113172260Y32883171D01*
X113475862Y32856609D01*
X112490583Y32522161D02*
X112414683Y32528802D01*
X112342102Y32573392D01*
X112307472Y32614663D01*
X112276162Y32693884D01*
X112251493Y32849005D01*
X112268094Y33038756D01*
X112319325Y33187237D01*
X112363916Y33259818D01*
X112405186Y33294448D01*
X112484407Y33325757D01*
X112560308Y33319117D01*
X112632888Y33274526D01*
X112667518Y33233256D01*
X112698828Y33154035D01*
X112723497Y32998914D01*
X112706896Y32809162D01*
X112655665Y32660681D01*
X112611074Y32588101D01*
X112569804Y32553471D01*
X112490583Y32522161D01*
X111959279Y32568644D02*
X111465926Y32611807D01*
X111758139Y32892168D01*
X111644289Y32902128D01*
X111571708Y32946719D01*
X111537078Y32987990D01*
X111505768Y33067210D01*
X111522369Y33256962D01*
X111566960Y33329542D01*
X111608231Y33364172D01*
X111687451Y33395482D01*
X111915153Y33375561D01*
X111987733Y33330970D01*
X112022363Y33289700D01*
X104404167Y43466681D02*
X104476747Y43422090D01*
X104590598Y43412130D01*
X104707769Y43440119D01*
X104790310Y43509379D01*
X104834900Y43581960D01*
X104886132Y43730441D01*
X104896092Y43844292D01*
X104871423Y43999413D01*
X104840113Y44078634D01*
X104770853Y44161175D01*
X104660322Y44209086D01*
X104584422Y44215726D01*
X104467251Y44187736D01*
X104425980Y44153106D01*
X104402739Y43887454D01*
X104554540Y43874173D01*
X104091068Y44258889D02*
X104021344Y43461933D01*
X103635665Y44298731D01*
X103565940Y43501776D01*
X103256162Y44331934D02*
X103186438Y43534978D01*
X102996686Y43551579D01*
X102886156Y43599490D01*
X102816896Y43682031D01*
X102785586Y43761252D01*
X102760916Y43916373D01*
X102770877Y44030224D01*
X102822108Y44178705D01*
X102866699Y44251285D01*
X102949240Y44320545D01*
X103066411Y44348535D01*
X103256162Y44331934D01*
X104078419Y41710293D02*
X104310868Y41307548D01*
X104533822Y41670450D02*
X104464097Y40873494D01*
X104160495Y40900056D01*
X104087915Y40944647D01*
X104053285Y40985917D01*
X104021975Y41065138D01*
X104031936Y41178989D01*
X104076526Y41251569D01*
X104117797Y41286199D01*
X104197018Y41317509D01*
X104500620Y41290947D01*
X103771496Y41698904D02*
X103660966Y41746815D01*
X103471214Y41763416D01*
X103391994Y41732106D01*
X103350723Y41697476D01*
X103306132Y41624896D01*
X103299492Y41548995D01*
X103330802Y41469775D01*
X103365432Y41428504D01*
X103438012Y41383913D01*
X103586493Y41332682D01*
X103659073Y41288091D01*
X103693703Y41246821D01*
X103725013Y41167600D01*
X103718373Y41091700D01*
X103673782Y41019119D01*
X103632512Y40984489D01*
X103553291Y40953179D01*
X103363539Y40969781D01*
X103253009Y41017691D01*
X103021987Y40999663D02*
X102566584Y41039505D01*
X102864010Y41816540D02*
X102794285Y41019584D01*
X114615943Y45887784D02*
X114546218Y45090828D01*
X114242616Y45117390D01*
X114170035Y45161980D01*
X114135405Y45203251D01*
X114104096Y45282471D01*
X114114056Y45396322D01*
X114158647Y45468903D01*
X114199917Y45503533D01*
X114279138Y45534843D01*
X114582740Y45508281D01*
X113597461Y45173833D02*
X113521561Y45180474D01*
X113448980Y45225064D01*
X113414350Y45266335D01*
X113383040Y45345556D01*
X113358371Y45500677D01*
X113374972Y45690428D01*
X113426203Y45838909D01*
X113470794Y45911490D01*
X113512064Y45946120D01*
X113591285Y45977429D01*
X113667186Y45970789D01*
X113739766Y45926198D01*
X113774396Y45884928D01*
X113805706Y45805707D01*
X113830375Y45650586D01*
X113813774Y45460834D01*
X113762543Y45312353D01*
X113717952Y45239773D01*
X113676682Y45205143D01*
X113597461Y45173833D01*
X112642528Y46060435D02*
X113097932Y46020592D01*
X112870230Y46040514D02*
X112800505Y45243558D01*
X112886367Y45350768D01*
X112968908Y45420028D01*
X113048128Y45451338D01*
X104166972Y36603141D02*
X104097247Y35806185D01*
X103793645Y35832747D01*
X103721064Y35877337D01*
X103686434Y35918608D01*
X103655125Y35997828D01*
X103665085Y36111679D01*
X103709676Y36184260D01*
X103750946Y36218890D01*
X103830167Y36250200D01*
X104133769Y36223638D01*
X103344882Y35948490D02*
X103303611Y35913860D01*
X103224391Y35882550D01*
X103034639Y35899151D01*
X102962059Y35943742D01*
X102927429Y35985012D01*
X102896119Y36064233D01*
X102902760Y36140133D01*
X102950670Y36250664D01*
X103445916Y36666225D01*
X102952563Y36709388D01*
X102193557Y36775792D02*
X102648961Y36735949D01*
X102421259Y36755871D02*
X102351534Y35958915D01*
X102437396Y36066125D01*
X102519937Y36135385D01*
X102599157Y36166695D01*
X113287690Y30705777D02*
X113217965Y29908821D01*
X112914363Y29935383D01*
X112841782Y29979973D01*
X112807152Y30021244D01*
X112775843Y30100464D01*
X112785803Y30214315D01*
X112830394Y30286896D01*
X112871664Y30321526D01*
X112950885Y30352836D01*
X113254487Y30326274D01*
X112269208Y29991826D02*
X112193308Y29998467D01*
X112120727Y30043057D01*
X112086097Y30084328D01*
X112054787Y30163549D01*
X112030118Y30318670D01*
X112046719Y30508421D01*
X112097950Y30656902D01*
X112142541Y30729483D01*
X112183811Y30764113D01*
X112263032Y30795422D01*
X112338933Y30788782D01*
X112411513Y30744191D01*
X112446143Y30702921D01*
X112477453Y30623700D01*
X112502122Y30468579D01*
X112485521Y30278827D01*
X112434290Y30130346D01*
X112389699Y30057766D01*
X112348429Y30023136D01*
X112269208Y29991826D01*
X111343693Y30340484D02*
X111390176Y30871787D01*
X111506882Y30020280D02*
X111746437Y30572933D01*
X111253084Y30616096D01*
X100310827Y50600586D02*
X97432945Y17706237D01*
X118023169Y49050957D02*
X100310827Y50600586D01*
X102619786Y47848876D02*
X102398411Y45318542D01*
X115145286Y16156608D02*
X118023169Y49050957D01*
X97432945Y17706237D02*
X115145286Y16156608D01*
X102398411Y45318542D02*
X99868076Y45539917D01*
X102619786Y47848876D02*
X100089452Y48070252D01*
%TO.C,*%
G36*
X60254329Y4792704D02*
G01*
X61458937Y8102336D01*
X65636173Y6593003D01*
X69813408Y5083672D01*
X70033505Y5253246D01*
X70292291Y5450908D01*
X70528247Y5627803D01*
X70728751Y5774597D01*
X70881188Y5881960D01*
X70909615Y5901088D01*
X71029905Y5981424D01*
X71140169Y6055820D01*
X71159074Y6068706D01*
X71297689Y6160990D01*
X71462087Y6266633D01*
X71637784Y6376796D01*
X71810291Y6482645D01*
X71965124Y6575340D01*
X72087795Y6646046D01*
X72163819Y6685927D01*
X72180088Y6691548D01*
X72228532Y6658367D01*
X72258888Y6610573D01*
X72300074Y6532539D01*
X72367421Y6414694D01*
X72424616Y6318612D01*
X72495377Y6197806D01*
X72547334Y6101578D01*
X72566230Y6059043D01*
X72544334Y6002264D01*
X72468245Y5928272D01*
X72357683Y5854593D01*
X72306659Y5828398D01*
X72241769Y5791220D01*
X72122534Y5716671D01*
X71962086Y5613396D01*
X71773558Y5490035D01*
X71570081Y5355232D01*
X71364787Y5217630D01*
X71170810Y5085869D01*
X71018885Y4980908D01*
X70872651Y4872495D01*
X70794820Y4798548D01*
X70781607Y4755333D01*
X70785665Y4750643D01*
X70829817Y4731167D01*
X70944929Y4685776D01*
X71125261Y4616614D01*
X71365074Y4525831D01*
X71658628Y4415571D01*
X72000183Y4287980D01*
X72384000Y4145206D01*
X72804339Y3989395D01*
X73255460Y3822692D01*
X73731623Y3647245D01*
X74010469Y3544728D01*
X77191989Y2375973D01*
X72541065Y-10402337D01*
X69515592Y-9312281D01*
X68953491Y-9110273D01*
X68440260Y-8926867D01*
X67979152Y-8763192D01*
X67573419Y-8620375D01*
X67226316Y-8499545D01*
X66941093Y-8401831D01*
X66721005Y-8328360D01*
X66569305Y-8280262D01*
X66489247Y-8258662D01*
X66476957Y-8258386D01*
X66463107Y-8340721D01*
X66453937Y-8487540D01*
X66449126Y-8682881D01*
X66448354Y-8910779D01*
X66451301Y-9155272D01*
X66457646Y-9400398D01*
X66467070Y-9630193D01*
X66479254Y-9828693D01*
X66493875Y-9979936D01*
X66510617Y-10067958D01*
X66513375Y-10074905D01*
X66528620Y-10153161D01*
X66486723Y-10213075D01*
X66380265Y-10259153D01*
X66201830Y-10295908D01*
X66133833Y-10305700D01*
X65926516Y-10330199D01*
X65790055Y-10337318D01*
X65715400Y-10326582D01*
X65693504Y-10297513D01*
X65696712Y-10282694D01*
X65693307Y-10218314D01*
X65680171Y-10178895D01*
X65641482Y-10043971D01*
X65609024Y-9838345D01*
X65583559Y-9572807D01*
X65565850Y-9258142D01*
X65556657Y-8905140D01*
X65556742Y-8524588D01*
X65557917Y-8447345D01*
X65567469Y-7907612D01*
X56808012Y-4675974D01*
X57801998Y-1945020D01*
X60502454Y-1945020D01*
X60503979Y-1993046D01*
X60563710Y-2083245D01*
X60674319Y-2209049D01*
X60828477Y-2363893D01*
X61018855Y-2541212D01*
X61238122Y-2734438D01*
X61478950Y-2937008D01*
X61734010Y-3142354D01*
X61995973Y-3343911D01*
X62257509Y-3535111D01*
X62349400Y-3599625D01*
X62769298Y-3877389D01*
X63221454Y-4152176D01*
X63691092Y-4416426D01*
X64163433Y-4662576D01*
X64623701Y-4883065D01*
X65057117Y-5070330D01*
X65448908Y-5216811D01*
X65609802Y-5268034D01*
X65765908Y-5315703D01*
X65909082Y-5361522D01*
X65989501Y-5388935D01*
X66114313Y-5434055D01*
X66393648Y-4666589D01*
X65789433Y-4446161D01*
X65007690Y-4131184D01*
X64202558Y-3749022D01*
X63434713Y-3333291D01*
X63228123Y-3207654D01*
X62984021Y-3047797D01*
X62717518Y-2864705D01*
X62443728Y-2669365D01*
X62177765Y-2472762D01*
X61934739Y-2285884D01*
X61729764Y-2119716D01*
X61577953Y-1985243D01*
X61570655Y-1978218D01*
X61432212Y-1846334D01*
X61297869Y-1722169D01*
X61180707Y-1617382D01*
X61093813Y-1543632D01*
X61050268Y-1512578D01*
X61047977Y-1512465D01*
X61010162Y-1541845D01*
X60927334Y-1607137D01*
X60818367Y-1693370D01*
X60702138Y-1785578D01*
X60597524Y-1868794D01*
X60523399Y-1928053D01*
X60502454Y-1945020D01*
X57801998Y-1945020D01*
X58080165Y-1180762D01*
X65837200Y-1180762D01*
X65840792Y-1198943D01*
X65867989Y-1222753D01*
X65925600Y-1255051D01*
X66020435Y-1298695D01*
X66159304Y-1356541D01*
X66349018Y-1431447D01*
X66596388Y-1526270D01*
X66908223Y-1643867D01*
X67210140Y-1756807D01*
X67528966Y-1876426D01*
X67822851Y-1987894D01*
X68083185Y-2087853D01*
X68301355Y-2172944D01*
X68468750Y-2239808D01*
X68576758Y-2285087D01*
X68616768Y-2305421D01*
X68602231Y-2351964D01*
X68550313Y-2438210D01*
X68512191Y-2491871D01*
X68380841Y-2682851D01*
X68225527Y-2933323D01*
X68054713Y-3227817D01*
X67876861Y-3550868D01*
X67700433Y-3887005D01*
X67533893Y-4220762D01*
X67385703Y-4536671D01*
X67351540Y-4613258D01*
X67231886Y-4884769D01*
X67338014Y-4923397D01*
X67422749Y-4947897D01*
X67564618Y-4982475D01*
X67740571Y-5021680D01*
X67855102Y-5045604D01*
X68588210Y-5173479D01*
X69288599Y-5253085D01*
X69947457Y-5283886D01*
X70555967Y-5265346D01*
X70891786Y-5230512D01*
X71045610Y-5215544D01*
X71169843Y-5214046D01*
X71240880Y-5226102D01*
X71245673Y-5229243D01*
X71279824Y-5285806D01*
X71327276Y-5398006D01*
X71378526Y-5543053D01*
X71385308Y-5564193D01*
X71437497Y-5755953D01*
X71455336Y-5889919D01*
X71438649Y-5960429D01*
X71397973Y-5966532D01*
X71340096Y-5965871D01*
X71230118Y-5978350D01*
X71138413Y-5993136D01*
X70865446Y-6029502D01*
X70529396Y-6053978D01*
X70148024Y-6066300D01*
X69739089Y-6066202D01*
X69320348Y-6053420D01*
X68909564Y-6027685D01*
X68897134Y-6026676D01*
X68711455Y-6007420D01*
X68483253Y-5977552D01*
X68229967Y-5940018D01*
X67969041Y-5897770D01*
X67717914Y-5853752D01*
X67494029Y-5810914D01*
X67314825Y-5772204D01*
X67197744Y-5740570D01*
X67191315Y-5738337D01*
X67070554Y-5701410D01*
X66992925Y-5704533D01*
X66940071Y-5759398D01*
X66893638Y-5877703D01*
X66874285Y-5940312D01*
X66769663Y-6326764D01*
X66670404Y-6768166D01*
X66581941Y-7237797D01*
X66509705Y-7708937D01*
X66500358Y-7779996D01*
X66488363Y-7873407D01*
X72358016Y-10009786D01*
X74576400Y-3914827D01*
X74823024Y-3236925D01*
X75061831Y-2579908D01*
X75291342Y-1947870D01*
X75510080Y-1344906D01*
X75716566Y-775109D01*
X75909323Y-242576D01*
X76086870Y248600D01*
X76247732Y694323D01*
X76390429Y1090500D01*
X76513483Y1433037D01*
X76615416Y1717837D01*
X76694750Y1940808D01*
X76750007Y2097853D01*
X76779709Y2184880D01*
X76784625Y2201937D01*
X76745515Y2218685D01*
X76635137Y2260758D01*
X76459169Y2326098D01*
X76223284Y2412642D01*
X75933161Y2518333D01*
X75594474Y2641111D01*
X75212902Y2778916D01*
X74794119Y2929689D01*
X74343803Y3091370D01*
X73867630Y3261899D01*
X73579813Y3364772D01*
X70385160Y4505802D01*
X70095768Y4263477D01*
X69306130Y3553302D01*
X68550311Y2775453D01*
X67836721Y1939871D01*
X67173771Y1056503D01*
X66569870Y135291D01*
X66484443Y-6303D01*
X66377782Y-188037D01*
X66262222Y-389802D01*
X66145979Y-596692D01*
X66037270Y-793796D01*
X65944310Y-966206D01*
X65875317Y-1099015D01*
X65838503Y-1177316D01*
X65837200Y-1180762D01*
X58080165Y-1180762D01*
X58117891Y-1077111D01*
X58987566Y1312301D01*
X59578901Y2936982D01*
X63922390Y2936982D01*
X63949965Y2899078D01*
X64036661Y2849883D01*
X64190183Y2785488D01*
X64308291Y2741305D01*
X64693229Y2601200D01*
X65377599Y4481492D01*
X65081867Y4594298D01*
X64925863Y4654322D01*
X64789010Y4707885D01*
X64698354Y4744391D01*
X64692032Y4747051D01*
X64597929Y4786997D01*
X64259679Y3889775D01*
X64163906Y3633348D01*
X64078738Y3400733D01*
X64008215Y3203346D01*
X63956378Y3052604D01*
X63927268Y2959918D01*
X63922390Y2936982D01*
X59578901Y2936982D01*
X60254329Y4792704D01*
G37*
G36*
X71828537Y2394283D02*
G01*
X71856424Y2354611D01*
X71911803Y2252384D01*
X71988669Y2099535D01*
X72081018Y1907997D01*
X72179814Y1696291D01*
X72494520Y1011611D01*
X73181364Y1331757D01*
X73399610Y1432270D01*
X73592162Y1518643D01*
X73746964Y1585657D01*
X73851960Y1628093D01*
X73895016Y1640764D01*
X73924669Y1615027D01*
X73964421Y1552238D01*
X74020434Y1440800D01*
X74098871Y1269115D01*
X74131034Y1196562D01*
X74260594Y902850D01*
X73581178Y581317D01*
X73364370Y478692D01*
X73173548Y388323D01*
X73020774Y315928D01*
X72918117Y267224D01*
X72877871Y248045D01*
X72886765Y209250D01*
X72925755Y108240D01*
X72989935Y-43409D01*
X73074398Y-234123D01*
X73174236Y-452326D01*
X73180594Y-466010D01*
X73507208Y-1168324D01*
X73216012Y-1318073D01*
X73055745Y-1401179D01*
X72934065Y-1457986D01*
X72840590Y-1482079D01*
X72764939Y-1467044D01*
X72696730Y-1406466D01*
X72625585Y-1293931D01*
X72541122Y-1123025D01*
X72432961Y-887336D01*
X72399042Y-813271D01*
X72080790Y-120284D01*
X71399835Y-442787D01*
X71181579Y-544084D01*
X70987463Y-630260D01*
X70829911Y-696119D01*
X70721347Y-736458D01*
X70674633Y-746303D01*
X70639429Y-702569D01*
X70582630Y-601602D01*
X70514061Y-461553D01*
X70481627Y-389806D01*
X70416815Y-238042D01*
X70368449Y-115683D01*
X70343541Y-40916D01*
X70341938Y-27367D01*
X70380062Y-3042D01*
X70480672Y49663D01*
X70632082Y124937D01*
X70822606Y216976D01*
X71040560Y319968D01*
X71044171Y321656D01*
X71737331Y645752D01*
X71414664Y1339577D01*
X71313737Y1558990D01*
X71226746Y1752685D01*
X71158907Y1908676D01*
X71115433Y2014972D01*
X71101533Y2059582D01*
X71101576Y2059721D01*
X71142135Y2090556D01*
X71237765Y2142821D01*
X71367930Y2207063D01*
X71512094Y2273832D01*
X71649718Y2333675D01*
X71760267Y2377140D01*
X71823202Y2394778D01*
X71828537Y2394283D01*
G37*
%TD*%
D11*
%TO.C,MCU1*%
X101243931Y46694397D03*
D12*
X101022556Y44164062D03*
X100801180Y41633728D03*
X100579804Y39103393D03*
X100358429Y36573059D03*
X100137053Y34042724D03*
X99915678Y31512389D03*
X99694302Y28982055D03*
X99472926Y26451720D03*
X99251551Y23921386D03*
X99030175Y21391051D03*
X98808800Y18860717D03*
X116425938Y45366143D03*
X116204563Y42835809D03*
X115983187Y40305474D03*
X115761812Y37775140D03*
X115540436Y35244805D03*
X115319060Y32714471D03*
X115097685Y30184136D03*
X114876309Y27653801D03*
X114654934Y25123467D03*
X114433558Y22593132D03*
X114212182Y20062798D03*
X113990807Y17532463D03*
%TD*%
M02*
