%TF.GenerationSoftware,KiCad,Pcbnew,6.0.1-1.fc35*%
%TF.CreationDate,2022-01-21T00:59:50-05:00*%
%TF.ProjectId,a_dux_30,615f6475-785f-4333-902e-6b696361645f,v1.0.0*%
%TF.SameCoordinates,Original*%
%TF.FileFunction,Soldermask,Top*%
%TF.FilePolarity,Negative*%
%FSLAX46Y46*%
G04 Gerber Fmt 4.6, Leading zero omitted, Abs format (unit mm)*
G04 Created by KiCad (PCBNEW 6.0.1-1.fc35) date 2022-01-21 00:59:50*
%MOMM*%
%LPD*%
G01*
G04 APERTURE LIST*
G04 Aperture macros list*
%AMRoundRect*
0 Rectangle with rounded corners*
0 $1 Rounding radius*
0 $2 $3 $4 $5 $6 $7 $8 $9 X,Y pos of 4 corners*
0 Add a 4 corners polygon primitive as box body*
4,1,4,$2,$3,$4,$5,$6,$7,$8,$9,$2,$3,0*
0 Add four circle primitives for the rounded corners*
1,1,$1+$1,$2,$3*
1,1,$1+$1,$4,$5*
1,1,$1+$1,$6,$7*
1,1,$1+$1,$8,$9*
0 Add four rect primitives between the rounded corners*
20,1,$1+$1,$2,$3,$4,$5,0*
20,1,$1+$1,$4,$5,$6,$7,0*
20,1,$1+$1,$6,$7,$8,$9,0*
20,1,$1+$1,$8,$9,$2,$3,0*%
%AMHorizOval*
0 Thick line with rounded ends*
0 $1 width*
0 $2 $3 position (X,Y) of the first rounded end (center of the circle)*
0 $4 $5 position (X,Y) of the second rounded end (center of the circle)*
0 Add line between two ends*
20,1,$1,$2,$3,$4,$5,0*
0 Add two circle primitives to create the rounded ends*
1,1,$1,$2,$3*
1,1,$1,$4,$5*%
G04 Aperture macros list end*
%ADD10C,3.100000*%
%ADD11C,1.801800*%
%ADD12C,3.529000*%
%ADD13RoundRect,0.050000X-1.300000X-1.300000X1.300000X-1.300000X1.300000X1.300000X-1.300000X1.300000X0*%
%ADD14RoundRect,0.050000X-1.408356X-1.181751X1.181751X-1.408356X1.408356X1.181751X-1.181751X1.408356X0*%
%ADD15C,2.132000*%
%ADD16C,1.600000*%
%ADD17HorizOval,1.700000X0.026147X0.298858X-0.026147X-0.298858X0*%
%ADD18RoundRect,0.050000X-1.001307X-1.541877X1.541877X-1.001307X1.001307X1.541877X-1.541877X1.001307X0*%
%ADD19RoundRect,0.050000X-1.181751X-1.408356X1.408356X-1.181751X1.181751X1.408356X-1.408356X1.181751X0*%
%ADD20RoundRect,0.050000X-0.796591X0.949340X-0.949340X-0.796591X0.796591X-0.949340X0.949340X0.796591X0*%
%ADD21C,1.852600*%
%ADD22RoundRect,0.050000X-0.776974X1.666227X-1.666227X-0.776974X0.776974X-1.666227X1.666227X0.776974X0*%
%ADD23RoundRect,0.050000X-0.475833X1.775833X-1.775833X-0.475833X0.475833X-1.775833X1.775833X0.475833X0*%
G04 APERTURE END LIST*
D10*
%TO.C,S15*%
X50125604Y65578531D03*
D11*
X55625604Y59628531D03*
D10*
X50125604Y65578531D03*
X55125604Y63378531D03*
D11*
X44625604Y59628531D03*
D12*
X50125604Y59628531D03*
D10*
X45125604Y63378531D03*
D13*
X53400604Y65578531D03*
X41850604Y63378531D03*
%TD*%
D11*
%TO.C,S21*%
X77849617Y53288437D03*
D10*
X72889123Y59695152D03*
D12*
X72370546Y53767794D03*
D10*
X67716407Y57939303D03*
X77678354Y57067745D03*
D11*
X66891475Y54247151D03*
D10*
X72889123Y59695152D03*
D14*
X76151660Y59409717D03*
X64453869Y58224738D03*
%TD*%
D11*
%TO.C,S4*%
X12776316Y34029042D03*
D12*
X7396504Y32885528D03*
D11*
X2016692Y31742014D03*
D15*
X13077306Y30208126D03*
X3295830Y28129009D03*
X8623183Y27114457D03*
X8623183Y27114457D03*
%TD*%
D16*
%TO.C,REF\u002A\u002A*%
X120943889Y37572721D03*
X121553979Y44546084D03*
D17*
X119498052Y47436268D03*
X124080548Y47035352D03*
X119402181Y46340454D03*
X123984676Y45939538D03*
X119053558Y42355675D03*
X123636053Y41954759D03*
X118792090Y39367091D03*
X123374586Y38966175D03*
%TD*%
D10*
%TO.C,S11*%
X55125604Y29378531D03*
D11*
X44625604Y25628531D03*
D10*
X50125604Y31578531D03*
D11*
X55625604Y25628531D03*
D12*
X50125604Y25628531D03*
D10*
X50125604Y31578531D03*
X45125604Y29378531D03*
D13*
X53400604Y31578531D03*
X41850604Y29378531D03*
%TD*%
D11*
%TO.C,S30*%
X99944244Y-22108143D03*
D12*
X102694244Y-17345003D03*
D11*
X105444244Y-12581863D03*
D15*
X101903347Y-11114876D03*
X96903347Y-19775130D03*
X97584694Y-14395003D03*
X97584694Y-14395003D03*
%TD*%
D12*
%TO.C,S12*%
X50125604Y25628531D03*
D11*
X44625604Y25628531D03*
X55625604Y25628531D03*
D15*
X55125604Y21828531D03*
X45125604Y21828531D03*
X50125604Y19728531D03*
X50125604Y19728531D03*
%TD*%
D11*
%TO.C,S13*%
X55625604Y42628531D03*
D12*
X50125604Y42628531D03*
D10*
X50125604Y48578531D03*
X50125604Y48578531D03*
D11*
X44625604Y42628531D03*
D10*
X45125604Y46378531D03*
X55125604Y46378531D03*
D13*
X53400604Y48578531D03*
X41850604Y46378531D03*
%TD*%
D12*
%TO.C,S1*%
X10931003Y16257018D03*
D11*
X5551191Y15113504D03*
D10*
X5260596Y18885513D03*
X9693928Y22076996D03*
D11*
X16310815Y17400532D03*
D10*
X15042072Y20964630D03*
X9693928Y22076996D03*
D18*
X12897362Y22757907D03*
X2057163Y18204602D03*
%TD*%
D11*
%TO.C,S16*%
X44625604Y59628531D03*
X55625604Y59628531D03*
D12*
X50125604Y59628531D03*
D15*
X45125604Y55828531D03*
X55125604Y55828531D03*
X50125604Y53728531D03*
X50125604Y53728531D03*
%TD*%
D12*
%TO.C,S6*%
X31006334Y18349934D03*
D11*
X25527263Y17870577D03*
X36485405Y18829291D03*
D15*
X36318499Y15000173D03*
X26356552Y14128615D03*
X31520553Y12472385D03*
X31520553Y12472385D03*
%TD*%
D11*
%TO.C,S23*%
X82600509Y27275383D03*
D10*
X83425441Y30967535D03*
D12*
X88079580Y26796026D03*
D10*
X88598157Y32723384D03*
X88598157Y32723384D03*
X93387388Y30095977D03*
D11*
X93558651Y26316669D03*
D14*
X91860694Y32437949D03*
X80162903Y31252970D03*
%TD*%
D11*
%TO.C,S26*%
X84082156Y44210693D03*
D12*
X89561227Y43731336D03*
D11*
X95040298Y43251979D03*
D15*
X84249062Y40381575D03*
X94211009Y39510017D03*
X89047008Y37853787D03*
X89047008Y37853787D03*
%TD*%
D10*
%TO.C,S3*%
X6159429Y38705506D03*
X11507573Y37593140D03*
X1726097Y35514023D03*
X6159429Y38705506D03*
D11*
X2016692Y31742014D03*
X12776316Y34029042D03*
D12*
X7396504Y32885528D03*
D18*
X9362863Y39386417D03*
X-1477336Y34833112D03*
%TD*%
D10*
%TO.C,S5*%
X25698526Y21649885D03*
X30487757Y24277292D03*
D11*
X25527263Y17870577D03*
D12*
X31006334Y18349934D03*
D10*
X30487757Y24277292D03*
X35660473Y22521443D03*
D11*
X36485405Y18829291D03*
D19*
X33750295Y24562728D03*
X22435989Y21364450D03*
%TD*%
D11*
%TO.C,S14*%
X55625604Y42628531D03*
X44625604Y42628531D03*
D12*
X50125604Y42628531D03*
D15*
X55125604Y38828531D03*
X45125604Y38828531D03*
X50125604Y36728531D03*
X50125604Y36728531D03*
%TD*%
D12*
%TO.C,S10*%
X28043039Y52220554D03*
D11*
X33522110Y52699911D03*
X22563968Y51741197D03*
D15*
X23393257Y47999235D03*
X33355204Y48870793D03*
X28557258Y46343005D03*
X28557258Y46343005D03*
%TD*%
D20*
%TO.C,MCU1*%
X101243931Y46694397D03*
D21*
X101022556Y44164062D03*
X100801180Y41633728D03*
X100579804Y39103393D03*
X100358429Y36573059D03*
X100137053Y34042724D03*
X99915678Y31512389D03*
X99694302Y28982055D03*
X99472926Y26451720D03*
X99251551Y23921386D03*
X99030175Y21391051D03*
X98808800Y18860717D03*
X116425938Y45366143D03*
X116204563Y42835809D03*
X115983187Y40305474D03*
X115761812Y37775140D03*
X115540436Y35244805D03*
X115319060Y32714471D03*
X115097685Y30184136D03*
X114876309Y27653801D03*
X114654934Y25123467D03*
X114433558Y22593132D03*
X114212182Y20062798D03*
X113990807Y17532463D03*
%TD*%
D10*
%TO.C,S19*%
X71407476Y42759842D03*
X71407476Y42759842D03*
X76196707Y40132435D03*
D11*
X65409828Y37311841D03*
D10*
X66234760Y41003993D03*
D12*
X70888899Y36832484D03*
D11*
X76367970Y36353127D03*
D14*
X74670013Y42474407D03*
X62972222Y41289428D03*
%TD*%
D11*
%TO.C,S24*%
X93558651Y26316669D03*
D12*
X88079580Y26796026D03*
D11*
X82600509Y27275383D03*
D15*
X82767415Y23446265D03*
X92729362Y22574707D03*
X87565361Y20918477D03*
X87565361Y20918477D03*
%TD*%
D11*
%TO.C,S28*%
X83060862Y-14235292D03*
X86823084Y-3898674D03*
D12*
X84941973Y-9066983D03*
D15*
X83081242Y-3068843D03*
X79661040Y-12465770D03*
X79397787Y-7049064D03*
X79397787Y-7049064D03*
%TD*%
D11*
%TO.C,S17*%
X63928180Y20376531D03*
D10*
X69925828Y25824532D03*
X69925828Y25824532D03*
D12*
X69407251Y19897174D03*
D11*
X74886322Y19417817D03*
D10*
X74715059Y23197125D03*
X64753112Y24068683D03*
D14*
X73188365Y25539097D03*
X61490574Y24354118D03*
%TD*%
D10*
%TO.C,S27*%
X90533144Y-11102003D03*
D11*
X83060862Y-14235292D03*
D10*
X90533144Y-11102003D03*
D12*
X84941973Y-9066983D03*
D11*
X86823084Y-3898674D03*
D10*
X86755720Y-15048022D03*
X90175921Y-5651095D03*
D22*
X89413028Y-14179496D03*
X91296037Y-2573602D03*
%TD*%
D12*
%TO.C,S20*%
X70888899Y36832484D03*
D11*
X65409828Y37311841D03*
X76367970Y36353127D03*
D15*
X65576734Y33482723D03*
X75538681Y32611165D03*
X70374680Y30954935D03*
X70374680Y30954935D03*
%TD*%
D10*
%TO.C,S25*%
X90079804Y49658694D03*
D11*
X84082156Y44210693D03*
X95040298Y43251979D03*
D10*
X90079804Y49658694D03*
D12*
X89561227Y43731336D03*
D10*
X84907088Y47902845D03*
X94869035Y47031287D03*
D14*
X93342341Y49373259D03*
X81644550Y48188280D03*
%TD*%
D12*
%TO.C,S2*%
X10931003Y16257018D03*
D11*
X5551191Y15113504D03*
X16310815Y17400532D03*
D15*
X16611805Y13579616D03*
X6830329Y11500499D03*
X12157682Y10485947D03*
X12157682Y10485947D03*
%TD*%
D11*
%TO.C,S22*%
X77849617Y53288437D03*
D12*
X72370546Y53767794D03*
D11*
X66891475Y54247151D03*
D15*
X77020328Y49546475D03*
X67058381Y50418033D03*
X71856327Y47890245D03*
X71856327Y47890245D03*
%TD*%
D11*
%TO.C,S29*%
X99944244Y-22108143D03*
D10*
X108441839Y-14889876D03*
D12*
X102694244Y-17345003D03*
D10*
X103441839Y-23550130D03*
X107847095Y-20320003D03*
X107847095Y-20320003D03*
D11*
X105444244Y-12581863D03*
D23*
X106209595Y-23156236D03*
X110079339Y-12053643D03*
%TD*%
D11*
%TO.C,S8*%
X24045615Y34805887D03*
X35003757Y35764601D03*
D12*
X29524686Y35285244D03*
D15*
X24874904Y31063925D03*
X34836851Y31935483D03*
X30038905Y29407695D03*
X30038905Y29407695D03*
%TD*%
D12*
%TO.C,S9*%
X28043039Y52220554D03*
D10*
X32697178Y56392063D03*
D11*
X22563968Y51741197D03*
D10*
X22735231Y55520505D03*
D11*
X33522110Y52699911D03*
D10*
X27524462Y58147912D03*
X27524462Y58147912D03*
D19*
X30787000Y58433348D03*
X19472694Y55235070D03*
%TD*%
D11*
%TO.C,S7*%
X24045615Y34805887D03*
D10*
X34178825Y39456753D03*
X29006109Y41212602D03*
X29006109Y41212602D03*
D11*
X35003757Y35764601D03*
D10*
X24216878Y38585195D03*
D12*
X29524686Y35285244D03*
D19*
X32268647Y41498038D03*
X20954341Y38299760D03*
%TD*%
D12*
%TO.C,S18*%
X69407251Y19897174D03*
D11*
X63928180Y20376531D03*
X74886322Y19417817D03*
D15*
X74057033Y15675855D03*
X64095086Y16547413D03*
X68893032Y14019625D03*
X68893032Y14019625D03*
%TD*%
M02*
